<svg xmlns="http://www.w3.org/2000/svg" width="1600" height="198"><rect id="backgroundrect" width="100%" height="100%" x="0" y="0" fill="none" stroke="none"/>
  <defs>
    <linearGradient id="a" x1="50%" x2="50%" y1="-10.959%" y2="100%">
      <stop stop-color="#56a2ff" stop-opacity=".80" offset="0%"/>
      <stop stop-color="#3b21ff" offset="100%"/>
    </linearGradient>
  <linearGradient id="svg_2" x1="1" y1="0" x2="1" y2="1"><stop stop-color="#01a5af" stop-opacity="0.796875" offset="0"/><stop stop-color="#01a5af" stop-opacity="0.99609375" offset="1"/></linearGradient><linearGradient id="svg_3" x1="1" y1="1"><stop stop-color="#ffffff" stop-opacity="1" offset="0"/><stop stop-color="#ffffff" stop-opacity="0.69921875" offset="1"/></linearGradient></defs>
  
<g class="currentLayer" style=""><title>Layer 1</title><path fill="url(#svg_3)" fill-rule="evenodd" d="M.005 121C311 121 409.898-.25 811 0c400 0 500 121 789 121v77H0s.005-48 .005-77z" transform="translate(174.399, 200.586) scale(1, 1.10632) translate(-174.399, -200.586) translate(1472.42, 88.5696) scale(1.05143) translate(-1472.42, -88.5696) translate(130.159, -2.38095) translate(107.692, 197.734) scale(1, 1.26215) translate(-107.692, -197.734) translate(-65.0794, 14.2857) translate(1407.24, 98.7785) scale(0.876603) translate(-1407.24, -98.7785) translate(-0.793651, 98.8095) scale(0.879088, 0.960468) translate(0.793651, -98.8095) translate(-0.793651, 198.794) scale(1, 0.498967) translate(0.793651, -198.794) matrix(-1, 0, 0, 1, 1600, 0)" id="svg_1" class="selected" fill-opacity="1"/></g></svg>