<svg version="1.1" xmlns="http://www.w3.org/2000/svg" xmlns:xlink="http://www.w3.org/1999/xlink" style="enable-background:new 0 0 508 508;" xml:space="preserve" width="508" height="508"><rect id="backgroundrect" width="100%" height="100%" x="0" y="0" fill="none" stroke="none"/>
























<g class="currentLayer" style=""><title>Layer 1</title><circle style="" cx="254" cy="254" r="254" id="svg_1" class="" fill="#04b8b8" fill-opacity="1"/><g id="svg_2" class="selected" fill="#8ae9e9" fill-opacity="1">
	<path style="" d="M255.2,363.2c-0.4,0-0.8,0.4-1.6,0.4c-0.4,0-0.8-0.4-1.6-0.4H255.2z" id="svg_3" fill="#8ae9e9" fill-opacity="1"/>
	<path style="" d="M458.4,404c-46,62.8-120.8,104-204.8,104S95.2,467.2,48.8,404c36-38.4,84.8-58.8,125.6-69.2   c-3.6,29.2,11.6,68.4,12,67.2c15.2-35.2,66.8-38.4,66.8-38.4s51.6,2.8,67.2,38.4c0.4,0.8,15.6-38,12-67.2   C373.6,345.2,422.4,365.6,458.4,404z" id="svg_4" fill="#8ae9e9" fill-opacity="1"/>
</g><path style="" d="M316.8,308L316.8,308c0,5.2-3.2,32.8-61.6,55.2H252c-58.4-22.4-61.6-50-61.6-55.2l0,0  c0.4-10.4,2.8-20.8,7.2-30.4c16,18,35.2,30,56,30c20.4,0,40-11.6,56-30C314,287.2,316.8,297.6,316.8,308z" id="svg_5" class="" fill="#fcce99" fill-opacity="1"/><path style="" d="M288.4,372.4L275.6,398h-44l-12.8-25.6c17.6-7.6,34.8-8.8,34.8-8.8S271.2,364.8,288.4,372.4z" id="svg_6" class="" fill="#009899" fill-opacity="1"/><path style="" d="M218,505.6c11.6,1.6,23.6,2.4,36,2.4c12,0,24-0.8,36-2.4l-14-107.2h-44L218,505.6z" id="svg_7" class="" fill="#009899" fill-opacity="1"/><g id="svg_8" class="" fill="#009899" fill-opacity="1">
	<path style="" d="M316.8,307.2c0,0,2.8,32-63.2,56.4c0,0,51.6,2.8,67.2,38.4C321.2,403.6,351.2,326,316.8,307.2z" id="svg_9" fill="#009899" fill-opacity="1"/>
	<path style="" d="M190.4,307.2c-34,18.8-4.4,96-3.6,94.8c15.2-35.2,67.2-38.4,67.2-38.4   C187.6,339.2,190.4,307.2,190.4,307.2z" id="svg_10" fill="#009899" fill-opacity="1"/>
</g><path style="" d="M312.8,285.6c-16.8,18-36.8,29.6-59.2,29.6s-42.4-11.6-59.2-29.6c0.8-2.8,2-5.6,3.2-8  c16,18,35.2,30,56,30s40-11.6,56-30C310.8,280,312,282.8,312.8,285.6z" id="svg_11" class="" fill="#e8a96b" fill-opacity="1"/><path style="" d="M362.8,224.4c-8.4,14-21.2,22.4-30.8,20.8c-19.2,35.6-47.2,62-78.4,62s-59.2-26.8-78.4-62  c-9.6,1.2-22.4-6.8-30.8-20.8c-10-16.4-10.4-34.4-0.8-40.4c2.4-1.2,4.8-2,7.6-1.6c6.4,16.4,15.2,26.4,15.2,26.4  c-9.2-50.8,28.4-56.4,22-105.2c0,0,23.6,52.4,91.2,15.6l-5.2,10c94.4-21.2,62.8,90,62,92.8c10.8-13.6,17.6-27.2,21.6-39.6  c1.6,0,3.6,0.8,4.8,1.6C373.2,189.6,372.8,208,362.8,224.4z" id="svg_12" class="" fill="#fee6cc" fill-opacity="1"/><path style="fill:#324A5E;" d="M308,50.8c7.6-0.8,20,6,20,6c-34-38.8-89.6-14-89.6-14c18.8-16,35.6-14.4,35.6-14.4  c-79.6-12-93.2,35.6-93.2,35.6c-3.6-5.6-3.6-13.6-3.2-17.6C172,56,178,75.2,178,75.2c-5.6-14-25.2-11.6-25.2-11.6  c16.8,2.8,19.6,13.2,19.6,13.2c-42,15.6-34.8,59.2-34.8,59.2l10-12c-12.4,47.6,19.2,84.4,19.2,84.4c-9.2-50.8,28.4-56.4,22-105.2  c0,0,23.6,52.4,91.2,15.6l-5.2,10c95.6-21.6,62,93.2,62,93.2c34-43.2,28.8-87.6,28.8-87.6l4,16C380.4,78.4,308,50.8,308,50.8z" id="svg_13"/><g id="svg_14">
</g><g id="svg_15">
</g><g id="svg_16">
</g><g id="svg_17">
</g><g id="svg_18">
</g><g id="svg_19">
</g><g id="svg_20">
</g><g id="svg_21">
</g><g id="svg_22">
</g><g id="svg_23">
</g><g id="svg_24">
</g><g id="svg_25">
</g><g id="svg_26">
</g><g id="svg_27">
</g><g id="svg_28">
</g></g></svg>