<svg version="1.1" xmlns="http://www.w3.org/2000/svg" xmlns:xlink="http://www.w3.org/1999/xlink" style="enable-background:new 0 0 512 512;" xml:space="preserve" width="512" height="512"><rect id="backgroundrect" width="100%" height="100%" x="0" y="0" fill="none" stroke="none"/>





























<g class="currentLayer" style=""><title>Layer 1</title><circle style="" cx="256" cy="256" r="256" id="svg_1" class="" fill="#04b8b8" fill-opacity="1"/><path style="" d="M512,256c0-16.196-1.521-32.036-4.397-47.397L432,133l-63.839,44.739L323.934,133l-73.827,127.17  L123.091,133L80,379l128.603,128.603C223.964,510.479,239.804,512,256,512C397.385,512,512,397.385,512,256z" id="svg_2" class="selected" fill="#009899" fill-opacity="1"/><path style="" d="M388.909,133c0.003,0.167,0.013,0.332,0.013,0.5c0,17.949-14.551,32.5-32.5,32.5  s-32.5-14.551-32.5-32.5c0-0.168,0.01-0.333,0.013-0.5H188.066c0.003,0.167,0.013,0.332,0.013,0.5c0,17.949-14.551,32.5-32.5,32.5  s-32.5-14.551-32.5-32.5c0-0.168,0.01-0.333,0.013-0.5H80v246h352V133H388.909z" id="svg_3" class="" fill="#abecec" fill-opacity="1"/><path style="" d="M432,133h-43.091c0.003,0.167,0.013,0.332,0.013,0.5c0,17.949-14.551,32.5-32.5,32.5  s-32.5-14.551-32.5-32.5c0-0.168,0.01-0.333,0.013-0.5h-68.363v246H432V133z" id="svg_4" class="" fill="#0bd5d5" fill-opacity="1"/><rect x="118.48999786376953" y="231.1199951171875" style="" width="137.50999450683594" height="20.750999450683594" id="svg_5" class="" fill="#919191" fill-opacity="1"/><rect x="186.52000427246094" y="231.1199951171875" style="" width="69.4800033569336" height="20.750999450683594" id="svg_6" class="" fill="#6d6d6d" fill-opacity="1"/><rect x="118.48999786376953" y="272.1199951171875" style="" width="137.50999450683594" height="20.750999450683594" id="svg_7" class="" fill="#919191" fill-opacity="1"/><rect x="186.52000427246094" y="272.1199951171875" style="" width="69.4800033569336" height="20.750999450683594" id="svg_8" class="" fill="#6d6d6d" fill-opacity="1"/><rect x="118.48999786376953" y="313.1199951171875" style="" width="137.50999450683594" height="20.750999450683594" id="svg_9" class="" fill="#919191" fill-opacity="1"/><rect x="186.52000427246094" y="313.1199951171875" style="" width="69.4800033569336" height="20.750999450683594" id="svg_10" class="" fill="#6d6d6d" fill-opacity="1"/><circle style="" cx="341.8699951171875" cy="236.3800048828125" r="31.614999771118164" id="svg_11" class="" fill="#ffffff" fill-opacity="1"/><path style="" d="M373.486,236.384c0-17.458-14.149-31.61-31.605-31.615v63.23  C359.337,267.993,373.486,253.841,373.486,236.384z" id="svg_12" class="" fill="#dadada" fill-opacity="1"/><path style="" d="M273,344.852c0-38.037,30.835-68.871,68.871-68.871s68.871,30.835,68.871,68.871H273z" id="svg_13" class="" fill="#ffffff" fill-opacity="1"/><path style="" d="M341.881,275.98v68.871h68.862C410.743,306.818,379.913,275.986,341.881,275.98z" id="svg_14" class="" fill="#dadada" fill-opacity="1"/><g id="svg_15">
</g><g id="svg_16">
</g><g id="svg_17">
</g><g id="svg_18">
</g><g id="svg_19">
</g><g id="svg_20">
</g><g id="svg_21">
</g><g id="svg_22">
</g><g id="svg_23">
</g><g id="svg_24">
</g><g id="svg_25">
</g><g id="svg_26">
</g><g id="svg_27">
</g><g id="svg_28">
</g><g id="svg_29">
</g></g></svg>