<svg version="1.1" xmlns="http://www.w3.org/2000/svg" xmlns:xlink="http://www.w3.org/1999/xlink" style="" xml:space="preserve" width="512" height="512"><rect id="backgroundrect" width="100%" height="100%" x="0" y="0" fill="none" stroke="none"/>


















<g class="currentLayer" style=""><title>Layer 1</title><path style="" d="M501.333,96H10.667C4.776,96,0,100.776,0,106.667v298.667C0,411.224,4.776,416,10.667,416h64  c5.891,0,10.667-4.776,10.667-10.667c0.108-1.863,0.72-3.663,1.771-5.205c2.006-3.365,2.006-7.558,0-10.923  c-1.051-1.543-1.663-3.342-1.771-5.205c0-5.891,4.776-10.667,10.667-10.667c5.891,0,10.667,4.776,10.667,10.667  c-0.108,1.863-0.72,3.663-1.771,5.205c-2.006,3.365-2.006,7.558,0,10.923c1.051,1.543,1.663,3.342,1.771,5.205  c0,5.891,4.776,10.667,10.667,10.667h64c5.891,0,10.667-4.776,10.667-10.667c0.108-1.863,0.72-3.663,1.771-5.205  c2.006-3.365,2.006-7.558,0-10.923c-1.051-1.543-1.663-3.342-1.771-5.205c0-5.891,4.776-10.667,10.667-10.667  s10.667,4.776,10.667,10.667c-0.108,1.863-0.72,3.663-1.771,5.205c-2.006,3.365-2.006,7.558,0,10.923  c1.051,1.543,1.663,3.342,1.771,5.205c0,5.891,4.776,10.667,10.667,10.667h64c5.891,0,10.667-4.776,10.667-10.667  c0.108-1.863,0.72-3.663,1.771-5.205c2.006-3.365,2.006-7.558,0-10.923c-1.051-1.543-1.663-3.342-1.771-5.205  c0-5.891,4.776-10.667,10.667-10.667S320,378.109,320,384c-0.108,1.863-0.72,3.663-1.771,5.205c-2.006,3.365-2.006,7.558,0,10.923  c1.051,1.543,1.663,3.342,1.771,5.205c0,5.891,4.776,10.667,10.667,10.667h64c5.891,0,10.667-4.776,10.667-10.667  c0.108-1.863,0.72-3.663,1.771-5.205c2.006-3.365,2.006-7.558,0-10.923c-1.051-1.543-1.663-3.342-1.771-5.205  c0-5.891,4.776-10.667,10.667-10.667c5.891,0,10.667,4.776,10.667,10.667c-0.108,1.863-0.72,3.663-1.771,5.205  c-2.006,3.365-2.006,7.558,0,10.923c1.051,1.543,1.663,3.342,1.771,5.205c0,5.891,4.776,10.667,10.667,10.667h64  c5.891,0,10.667-4.776,10.667-10.667V106.667C512,100.776,507.224,96,501.333,96z" id="svg_1" class="" fill="#04b8b8" fill-opacity="1"/><g id="svg_2">
	<circle style="fill:#FAFAFA;" cx="138.66700744628906" cy="192" r="42.66699981689453" id="svg_3"/>
	<path style="fill:#FAFAFA;" d="M224,320c0-47.128-38.205-85.333-85.333-85.333S53.333,272.872,53.333,320H224z" id="svg_4"/>
</g><g id="svg_5" class="selected" fill="#ffffff" fill-opacity="1">
	<path style="" d="M458.667,181.333H288c-5.891,0-10.667-4.776-10.667-10.667S282.109,160,288,160h170.667   c5.891,0,10.667,4.776,10.667,10.667S464.558,181.333,458.667,181.333z" id="svg_6" fill="#ffffff" fill-opacity="1"/>
	<path style="" d="M394.667,245.333H288c-5.891,0-10.667-4.776-10.667-10.667S282.109,224,288,224h106.667   c5.891,0,10.667,4.776,10.667,10.667S400.558,245.333,394.667,245.333z" id="svg_7" fill="#ffffff" fill-opacity="1"/>
	<path style="" d="M458.667,309.333H288c-5.891,0-10.667-4.776-10.667-10.667c0-5.891,4.776-10.667,10.667-10.667   h170.667c5.891,0,10.667,4.776,10.667,10.667C469.333,304.558,464.558,309.333,458.667,309.333z" id="svg_8" fill="#ffffff" fill-opacity="1"/>
</g><g id="svg_9">
</g><g id="svg_10">
</g><g id="svg_11">
</g><g id="svg_12">
</g><g id="svg_13">
</g><g id="svg_14">
</g><g id="svg_15">
</g><g id="svg_16">
</g><g id="svg_17">
</g><g id="svg_18">
</g><g id="svg_19">
</g><g id="svg_20">
</g><g id="svg_21">
</g><g id="svg_22">
</g><g id="svg_23">
</g></g></svg>