<svg version="1.1" xmlns="http://www.w3.org/2000/svg" xmlns:xlink="http://www.w3.org/1999/xlink" style="enable-background:new 0 0 512 512;" xml:space="preserve" width="512" height="512"><rect id="backgroundrect" width="100%" height="100%" x="0" y="0" fill="none" stroke="none"/>







































<g class="currentLayer" style=""><title>Layer 1</title><circle style="" cx="256" cy="267" r="245" id="svg_1" class="selected" fill="#dadada" fill-opacity="1"/><path style="fill:#D9EAFC;" d="M61.91400146484375,416.510986328125 C106.71499633789062,474.5820007324219 176.98199462890625,512 256,512 c47.73899841308594,0 92.27899932861328,-13.668000221252441 129.947998046875,-37.284000396728516 V134.34500122070312 H61.91400146484375 V416.510986328125 z" id="svg_2" class=""/><path style="" d="M81.756,134.345H61.914v282.166c6.144,7.964,12.783,15.524,19.842,22.668V134.345z" id="svg_3" class="" fill="#009899" fill-opacity="1"/><rect x="61.91400146484375" y="35.902000427246094" style="" width="324.0299987792969" height="99.44000244140625" id="svg_4" class="" fill="#01a5af" fill-opacity="1"/><rect x="61.91400146484375" y="35.902000427246094" style="" width="19.841999053955078" height="99.44000244140625" id="svg_5" class="" fill="#009899" fill-opacity="1"/><path style="" d="M376.391,0H71.472c-5.257,0-9.558,4.301-9.558,9.558v27.344h324.034V9.558  C385.948,4.301,381.647,0,376.391,0z" id="svg_6" class="" fill="#484848" fill-opacity="1"/><path style="" d="M347.9800109863281,283.9272446632385 c0,1.965000033378601 -1.6080000400543213,3.572999954223633 -3.572000026702881,3.572999954223633 H201.5050048828125 c-1.965000033378601,0 -3.572000026702881,-1.6080000400543213 -3.572000026702881,-3.572999954223633 v-95.74400329589844 c0,-1.965000033378601 1.6069999933242798,-3.572999954223633 3.572000026702881,-3.572999954223633 h142.9029998779297 c1.965000033378601,0 3.572000026702881,1.6069999933242798 3.572000026702881,3.572999954223633 V283.9272446632385 z" id="svg_7" class="" fill="#04b8b8" fill-opacity="1"/><path style="" d="M216.1876983642578,283.9272262454033 v-95.74400329589844 c0,-1.965000033378601 1.6069999933242798,-3.572999954223633 3.572000026702881,-3.572999954223633 h-19.841999053955078 c-1.965000033378601,0 -3.572000026702881,1.6069999933242798 -3.572000026702881,3.572999954223633 v95.74400329589844 c0,1.965000033378601 1.6069999933242798,3.572999954223633 3.572000026702881,3.572999954223633 h19.841999053955078 C217.79470825195312,287.49921721220016 216.1876983642578,285.8912155032158 216.1876983642578,283.9272262454033 z" id="svg_8" class="" fill="#009899" fill-opacity="1"/><path style="" d="M313.71098786592484,240.55122983455658 c-1.2669999599456787,-1.5019999742507935 -3.3389999866485596,-1.5019999742507935 -4.605000019073486,0 l-18.572999954223633,22.035999298095703 c-1.2669999599456787,1.5019999742507935 -3.3380000591278076,1.5019999742507935 -4.604000091552734,0 l-35.058998107910156,-41.590999603271484 c-1.2669999599456787,-1.5019999742507935 -3.3380000591278076,-1.5019999742507935 -4.604000091552734,0 l-48.332000732421875,57.3390007019043 v5.591000080108643 c0,1.965000033378601 1.6069999933242798,3.572999954223633 3.572000026702881,3.572999954223633 h142.9029998779297 c1.965000033378601,0 3.572000026702881,-1.6080000400543213 3.572000026702881,-3.572999954223633 v-2.7200000286102295 L313.71098786592484,240.55122983455658 z" id="svg_9" class="" fill="#009899" fill-opacity="1"/><circle style="" cx="313.6315612792969" cy="204.67523193359375" r="10.718002319335938" id="svg_10" class="" fill="#ffffff" fill-opacity="1"/><g id="svg_11" class="" fill="#04b8b8" fill-opacity="1">
	<path style="" d="M344.5713195800781,316.06639129037103 H207.38429260253906 c-4.142000198364258,0 -7.5,-3.2769329141245436 -7.5,-7.318938821554184 s3.3580000400543213,-7.318938821554184 7.5,-7.318938821554184 h137.18800354003906 c4.142000198364258,0 7.5,3.2769329141245436 7.5,7.318938821554184 S348.71331787109375,316.06639129037103 344.5713195800781,316.06639129037103 z" id="svg_12" fill="#04b8b8" fill-opacity="1"/>
	<path style="" d="M344.5713195800781,341.08155094464746 H207.38429260253906 c-4.142000198364258,0 -7.5,-3.2769329141245436 -7.5,-7.318938821554184 s3.3580000400543213,-7.318938821554184 7.5,-7.318938821554184 h137.18800354003906 c4.142000198364258,0 7.5,3.2769329141245436 7.5,7.318938821554184 C352.0713195800781,337.8046164018833 348.71331787109375,341.08155094464746 344.5713195800781,341.08155094464746 z" id="svg_13" fill="#04b8b8" fill-opacity="1"/>
	<path style="" d="M344.5713195800781,366.0967105989239 H207.38429260253906 c-4.142000198364258,0 -7.5,-3.2769329141245436 -7.5,-7.318938821554184 s3.3580000400543213,-7.318938821554184 7.5,-7.318938821554184 h137.18800354003906 c4.142000198364258,0 7.5,3.2769329141245436 7.5,7.318938821554184 C352.0713195800781,362.8207588238238 348.71331787109375,366.0967105989239 344.5713195800781,366.0967105989239 z" id="svg_14" fill="#04b8b8" fill-opacity="1"/>
	<path style="" d="M344.5713195800781,391.11285302086435 H207.38429260253906 c-4.142000198364258,0 -7.5,-3.2769329141245436 -7.5,-7.318938821554184 s3.3580000400543213,-7.318938821554184 7.5,-7.318938821554184 h137.18800354003906 c4.142000198364258,0 7.5,3.2769329141245436 7.5,7.318938821554184 S348.71331787109375,391.11285302086435 344.5713195800781,391.11285302086435 z" id="svg_15" fill="#04b8b8" fill-opacity="1"/>
	<path style="" d="M276.2523193359375,416.1280126751408 h-68.86799621582031 c-4.142000198364258,0 -7.5,-3.2769329141245436 -7.5,-7.318938821554184 s3.3580000400543213,-7.318938821554184 7.5,-7.318938821554184 h68.86799621582031 c4.142000198364258,0 7.5,3.2769329141245436 7.5,7.318938821554184 S280.3943176269531,416.1280126751408 276.2523193359375,416.1280126751408 z" id="svg_16" fill="#04b8b8" fill-opacity="1"/>
	<path style="" d="M276.2523193359375,174.11510230908243 h-68.86799621582031 c-4.142000198364258,0 -7.5,-3.2769329141245436 -7.5,-7.318938821554184 s3.3580000400543213,-7.318938821554184 7.5,-7.318938821554184 h68.86799621582031 c4.142000198364258,0 7.5,3.2769329141245436 7.5,7.318938821554184 S280.3943176269531,174.11510230908243 276.2523193359375,174.11510230908243 z" id="svg_17" fill="#04b8b8" fill-opacity="1"/>
</g><g id="svg_18" class="" fill="#ffffff" fill-opacity="1">
	<path style="" d="M100.88360285758972,366.37094736099243 c0,-2.75 2.25,-5 5,-5 h66.46099853515625 c2.75,0 5,2.25 5,5 v46.805999755859375 c0,2.75 -2.25,5 -5,5 h-66.46099853515625 c-2.75,0 -5,-2.25 -5,-5 V366.37094736099243 z" id="svg_19" fill="#ffffff" fill-opacity="1"/>
	<path style="" d="M100.88360285758972,298.3319458961487 c0,-2.75 2.25,-5 5,-5 h66.46099853515625 c2.75,0 5,2.25 5,5 v46.805999755859375 c0,2.75 -2.25,5 -5,5 h-66.46099853515625 c-2.75,0 -5,-2.25 -5,-5 V298.3319458961487 z" id="svg_20" fill="#ffffff" fill-opacity="1"/>
</g><g id="svg_21" class="" fill="#ffffff" fill-opacity="1">
	<path style="" d="M98.50265043973923,229.49928951263428 c0,-2.75 2.25,-5 5,-5 h66.46099853515625 c2.75,0 5,2.25 5,5 v46.805999755859375 c0,2.75 -2.25,5 -5,5 h-66.46099853515625 c-2.75,0 -5,-2.25 -5,-5 V229.49928951263428 z" id="svg_22" fill="#ffffff" fill-opacity="1"/>
	<path style="" d="M98.50265043973923,161.46028804779053 c0,-2.75 2.25,-5 5,-5 h66.46099853515625 c2.75,0 5,2.25 5,5 v46.805999755859375 c0,2.75 -2.25,5 -5,5 h-66.46099853515625 c-2.75,0 -5,-2.25 -5,-5 V161.46028804779053 z" id="svg_23" fill="#ffffff" fill-opacity="1"/>
</g><g id="svg_24" class="" fill="#04b8b8" fill-opacity="1">
	<path style="" d="M119.93195343017578,413.17692106962204 v-46.805999755859375 c0,-2.75 2.25,-5 5,-5 h-19.841999053955078 c-2.75,0 -5,2.25 -5,5 v46.805999755859375 c0,2.75 2.25,5 5,5 h19.841999053955078 C122.18195343017578,418.17692106962204 119.93195343017578,415.92692106962204 119.93195343017578,413.17692106962204 z" id="svg_25" fill="#04b8b8" fill-opacity="1"/>
	<path style="" d="M119.93195343017578,345.1379196047783 v-46.805999755859375 c0,-2.75 2.25,-5 5,-5 h-19.841999053955078 c-2.75,0 -5,2.25 -5,5 v46.805999755859375 c0,2.75 2.25,5 5,5 h19.841999053955078 C122.18195343017578,350.1379196047783 119.93195343017578,347.8879196047783 119.93195343017578,345.1379196047783 z" id="svg_26" fill="#04b8b8" fill-opacity="1"/>
</g><g id="svg_27" class="" fill="#04b8b8" fill-opacity="1">
	<path style="" d="M118.34465485811234,276.3052780032158 v-46.805999755859375 c0,-2.75 2.25,-5 5,-5 h-19.841999053955078 c-2.75,0 -5,2.25 -5,5 v46.805999755859375 c0,2.75 2.25,5 5,5 h19.841999053955078 C120.59465485811234,281.3052780032158 118.34465485811234,279.0552780032158 118.34465485811234,276.3052780032158 z" id="svg_28" fill="#04b8b8" fill-opacity="1"/>
	<path style="" d="M118.34465485811234,208.2662917971611 v-46.805999755859375 c0,-2.75 2.25,-5 5,-5 h-19.841999053955078 c-2.75,0 -5,2.25 -5,5 v46.805999755859375 c0,2.75 2.25,5 5,5 h19.841999053955078 C120.59465485811234,213.2662917971611 118.34465485811234,211.0162917971611 118.34465485811234,208.2662917971611 z" id="svg_29" fill="#04b8b8" fill-opacity="1"/>
</g><g id="svg_30">
	<path style="fill:#FFFFFF;" d="M308.966,105.576h-170.07c-4.142,0-7.5-3.358-7.5-7.5s3.358-7.5,7.5-7.5h170.07   c4.142,0,7.5,3.358,7.5,7.5C316.466,102.218,313.108,105.576,308.966,105.576z" id="svg_31"/>
	<path style="fill:#FFFFFF;" d="M266.189,77.345h-84.516c-4.142,0-7.5-3.358-7.5-7.5s3.358-7.5,7.5-7.5h84.516   c4.142,0,7.5,3.358,7.5,7.5S270.331,77.345,266.189,77.345z" id="svg_32"/>
</g><path style="" d="M84.851,26.151c-2.045,0-4.037-0.827-5.482-2.262c-1.436-1.445-2.261-3.438-2.261-5.482  c0-2.035,0.825-4.027,2.261-5.472c1.445-1.446,3.438-2.271,5.482-2.271c2.033,0,4.036,0.826,5.471,2.271  c1.446,1.445,2.272,3.437,2.272,5.472c0,2.044-0.826,4.036-2.272,5.482C88.887,25.324,86.884,26.151,84.851,26.151z" id="svg_33" class="" fill="#ffffff" fill-opacity="1"/><path style="" d="M110.242,26.151c-2.034,0-4.037-0.827-5.473-2.272c-1.444-1.435-2.271-3.427-2.271-5.471  c0-2.035,0.826-4.027,2.271-5.472c1.446-1.446,3.438-2.271,5.473-2.271c2.044,0,4.036,0.826,5.482,2.271  c1.435,1.445,2.261,3.437,2.261,5.472c0,2.034-0.826,4.036-2.261,5.471C114.278,25.324,112.286,26.151,110.242,26.151z" id="svg_34" class="" fill="#ffffff" fill-opacity="1"/><path style="" d="M135.645,26.151c-2.044,0-4.037-0.827-5.472-2.262c-1.445-1.445-2.271-3.438-2.271-5.482  c0-2.035,0.826-4.027,2.271-5.472c1.435-1.446,3.428-2.271,5.472-2.271c2.034,0,4.037,0.826,5.472,2.271  c1.445,1.445,2.271,3.437,2.271,5.472c0,2.044-0.826,4.036-2.271,5.482C139.671,25.324,137.679,26.151,135.645,26.151z" id="svg_35" class="" fill="#ffffff" fill-opacity="1"/><path style="" d="M404.248,382.582c0,11.351,9.287,20.638,20.638,20.638h2.064c11.351,0,20.638-9.288,20.638-20.638  v-13.413h-43.34V382.582z" id="svg_36" class="" fill="#009899" fill-opacity="1"/><path style="" d="M445.335,50.904l-17.163-35.346c-1.239-2.553-3.268-2.553-4.507,0l-17.163,35.346  c-1.239,2.552-2.254,6.963-2.254,9.801v9.722h43.34v-9.722C447.588,57.867,446.575,53.456,445.335,50.904z" id="svg_37" class="" fill="#dadada" fill-opacity="1" opacity="1" filter=""/><rect x="404.25" y="69.4000015258789" style="" width="43.34000015258789" height="300.80999755859375" id="svg_38" class="" fill="#04b8b8" fill-opacity="1"/><rect x="404.25" y="69.4000015258789" style="" width="19.841999053955078" height="300.80999755859375" id="svg_39" class="" fill="#009899" fill-opacity="1"/><path style="" d="M423.665,15.558l-9.605,19.779h23.716l-9.604-19.779C426.933,13.004,424.905,13.004,423.665,15.558z" id="svg_40" class="" fill="#242424" fill-opacity="1"/><g id="svg_41">
</g><g id="svg_42">
</g><g id="svg_43">
</g><g id="svg_44">
</g><g id="svg_45">
</g><g id="svg_46">
</g><g id="svg_47">
</g><g id="svg_48">
</g><g id="svg_49">
</g><g id="svg_50">
</g><g id="svg_51">
</g><g id="svg_52">
</g><g id="svg_53">
</g><g id="svg_54">
</g><g id="svg_55">
</g><rect fill="" style="color: rgb(0, 152, 153);" stroke-dashoffset="" fill-rule="nonzero" id="svg_58" x="62" y="457" width="198" height="51" class="" opacity="0"/><rect fill="#ffffff" style="color: rgb(0, 152, 153);" stroke-dashoffset="" fill-rule="nonzero" id="svg_60" x="216" y="453" width="175" height="55" class="" fill-opacity="0"/><rect fill="" style="color: rgb(254, 230, 204);" stroke-dashoffset="" fill-rule="nonzero" id="svg_56" x="59.87301588058472" y="418.2063495516777" width="351.0158658027649" height="93.07936263084412" class="" opacity="0"/><image style="color: rgb(254, 230, 204);" opacity="0" id="svg_63" x="241" y="232" width="17" height="80" xlink:href="logo/vector_paint_icon256.png"/><image style="color: rgb(254, 230, 204);" opacity="0" id="svg_65" x="241" y="312" width="121" height="73" xlink:href="logo/vector_paint_icon256.png"/><image style="color: rgb(254, 230, 204);" opacity="0" id="svg_70" x="149" y="178" width="20" height="7" xlink:href="logo/vector_paint_icon256.png"/><image style="color: rgb(254, 230, 204);" opacity="0" id="svg_74" x="62" y="64" width="360" height="234" xlink:href="logo/vector_paint_icon256.png"/><image style="color: rgb(254, 230, 204);" opacity="0" id="svg_80" x="60" y="222" width="322" height="192" xlink:href="logo/vector_paint_icon256.png"/><image style="color: rgb(254, 230, 204);" opacity="0" id="svg_82" x="275" y="202" width="107" height="212" xlink:href="logo/vector_paint_icon256.png"/><image style="color: rgb(254, 230, 204);" opacity="0" id="svg_84" x="236" y="202" width="39" height="98" xlink:href="logo/vector_paint_icon256.png"/></g><defs><filter id="f115" inkscape:label="Noise fill" xmlns:inkscape="http://www.inkscape.org/namespaces/inkscape" inkscape:menu="ABCs" inkscape:menu-tooltip="Basic noise fill texture; adjust color in Flood" color-interpolation-filters="sRGB">
            <feTurbulence numOctaves="5" baseFrequency=".02" type="fractalNoise"/>
            <feColorMatrix result="result0" values="1 0 0 0 0 0 1 0 0 0 0 0 1 0 0 0 0 0 3 -1 "/>
            <feFlood flood-opacity="1" flood-color="#91c7c3" result="result1"/>
            <feBlend in2="SourceGraphic" mode="normal" in="result1"/>
            <feComposite operator="out" in2="result0"/>
            <feComposite operator="atop" in2="SourceGraphic"/>
        </filter></defs></svg>