<svg version="1.1" xmlns="http://www.w3.org/2000/svg" xmlns:xlink="http://www.w3.org/1999/xlink" style="enable-background:new 0 0 512 512;" xml:space="preserve" width="512" height="512"><rect id="backgroundrect" width="100%" height="100%" x="0" y="0" fill="none" stroke="none"/>










































<g class="currentLayer" style=""><title>Layer 1</title><circle style="" cx="267" cy="256" r="245" id="svg_1" class="selected" fill="#ffffff" fill-opacity="1" opacity="0"/><rect x="185.72000122070312" y="358.5299987792969" style="" width="78.70999908447266" height="41.22999954223633" id="svg_2" class="" fill="#04b8b8" fill-opacity="1"/><rect x="185.72000122070312" y="358.5299987792969" style="" width="19.841999053955078" height="41.22999954223633" id="svg_3" class="" fill="#009899" fill-opacity="1"/><path style="" d="M316.856,398.763H127.56c-2.806,0-5.101,2.296-5.101,5.102v25.571c0,2.806,2.296,5.102,5.101,5.102  h189.296L316.856,398.763L316.856,398.763z" id="svg_4" class="" fill="#04b8b8" fill-opacity="1"/><path style="" d="M142.301,429.435v-25.571c0-2.806,2.296-5.102,5.102-5.102H127.56c-2.806,0-5.101,2.296-5.101,5.102  v25.571c0,2.806,2.296,5.102,5.101,5.102h19.842C144.597,434.537,142.301,432.241,142.301,429.435z" id="svg_5" class="" fill="#009899" fill-opacity="1"/><path style="" d="M445.054,58.964H5.102C2.296,58.964,0,61.26,0,64.066V354.43c0,2.807,2.296,5.102,5.102,5.102  h311.754V206.768c0-3.859,3.14-7,7-7h126.3V64.066C450.156,61.26,447.86,58.964,445.054,58.964z" id="svg_6" class="" fill="#009899" fill-opacity="1"/><path style="fill:#FFFFFF;" d="M22.396,308.514c0,1.684,1.377,3.06,3.061,3.06h291.399V206.768c0-3.859,3.14-7,7-7H427.76v-90.77  H22.396V308.514z" id="svg_7"/><path style="" d="M42.239,308.514V108.998H22.396v199.516c0,1.684,1.377,3.06,3.061,3.06H45.3  C43.616,311.574,42.239,310.197,42.239,308.514z" id="svg_8" class="" fill="#b6b6b6" fill-opacity="1"/><circle style="" cx="225.0800018310547" cy="335.4599914550781" r="13.77400016784668" id="svg_9" class="" fill="#04b8b8" fill-opacity="1"/><path style="" d="M316.856,223.146h-53.424c-1.65,0-3,1.35-3,3v59.639c0,1.65,1.35,3,3,3h53.424V223.146z" id="svg_10" class="" fill="#dadada" fill-opacity="1"/><path style="" d="M280.274,285.785v-59.639c0-1.65,1.35-3,3-3h-19.842c-1.65,0-3,1.35-3,3v59.639c0,1.65,1.35,3,3,3  h19.842C281.624,288.785,280.274,287.435,280.274,285.785z" id="svg_11" class="" fill="#b6b6b6" fill-opacity="1"/><path style="" d="M323.856,199.768h46.618v-65.382c0-2.75-2.25-5-5-5H84.682c-2.75,0-5,2.25-5,5v66.525  c0,2.75,2.25,5,5,5h232.233C317.339,202.455,320.288,199.768,323.856,199.768z" id="svg_12" class="" fill="#dadada" fill-opacity="1"/><path style="" d="M99.524,200.91v-66.525c0-2.75,2.25-5,5-5H84.682c-2.75,0-5,2.25-5,5v66.525c0,2.75,2.25,5,5,5  h19.842C101.774,205.91,99.524,203.66,99.524,200.91z" id="svg_13" class="" fill="#b6b6b6" fill-opacity="1"/><path style="" d="M424.699,84.983H25.457c-1.684,0-3.061,1.377-3.061,3.062v21.953H427.76V88.045  C427.76,86.36,426.382,84.983,424.699,84.983z" id="svg_14" class="" fill="#dadada" fill-opacity="1"/><path style="" d="M45.3,84.983H25.457c-1.684,0-3.061,1.377-3.061,3.062v21.953h19.842V88.045  C42.239,86.36,43.616,84.983,45.3,84.983z" id="svg_15" class="" fill="#b6b6b6" fill-opacity="1"/><g id="svg_16" class="" fill="#b6b6b6" fill-opacity="1">
	<path style="" d="M171.504,238.979h-84.17c-4.142,0-7.5-3.357-7.5-7.5s3.358-7.5,7.5-7.5h84.17   c4.142,0,7.5,3.357,7.5,7.5S175.646,238.979,171.504,238.979z" id="svg_17" fill="#b6b6b6" fill-opacity="1"/>
	<path style="" d="M171.504,263.466h-84.17c-4.142,0-7.5-3.357-7.5-7.5s3.358-7.5,7.5-7.5h84.17   c4.142,0,7.5,3.357,7.5,7.5C179.004,260.108,175.646,263.466,171.504,263.466z" id="svg_18" fill="#b6b6b6" fill-opacity="1"/>
	<path style="" d="M171.504,287.953h-84.17c-4.142,0-7.5-3.357-7.5-7.5s3.358-7.5,7.5-7.5h84.17   c4.142,0,7.5,3.357,7.5,7.5S175.646,287.953,171.504,287.953z" id="svg_19" fill="#b6b6b6" fill-opacity="1"/>
	<path style="" d="M237.56,238.979h-43.326c-4.142,0-7.5-3.357-7.5-7.5s3.358-7.5,7.5-7.5h43.326   c4.142,0,7.5,3.357,7.5,7.5S241.702,238.979,237.56,238.979z" id="svg_20" fill="#b6b6b6" fill-opacity="1"/>
	<path style="" d="M237.56,263.466h-43.326c-4.142,0-7.5-3.357-7.5-7.5s3.358-7.5,7.5-7.5h43.326   c4.142,0,7.5,3.357,7.5,7.5C245.06,260.108,241.702,263.466,237.56,263.466z" id="svg_21" fill="#b6b6b6" fill-opacity="1"/>
	<path style="" d="M237.56,287.953h-43.326c-4.142,0-7.5-3.357-7.5-7.5s3.358-7.5,7.5-7.5h43.326   c4.142,0,7.5,3.357,7.5,7.5S241.702,287.953,237.56,287.953z" id="svg_22" fill="#b6b6b6" fill-opacity="1"/>
</g><path style="" d="M504,198.768c4.4,0,8,3.6,8,8v241.77c0,4.4-3.6,8-8,8H323.856c-4.4,0-8-3.6-8-8v-241.77  c0-4.4,3.6-8,8-8L504,198.768L504,198.768z" id="svg_23" class="" fill="#009899" fill-opacity="1"/><path style="fill:#FFFFFF;" d="M337.567,425.125c-2.75,0-5-2.25-5-5V219.18c0-2.75,2.25-5,5-5H490.29c2.75,0,5,2.25,5,5v200.945  c0,2.75-2.25,5-5,5H337.567z" id="svg_24"/><path style="" d="M352.409,420.125V219.18c0-2.75,2.25-5,5-5h-19.842c-2.75,0-5,2.25-5,5v200.945c0,2.75,2.25,5,5,5  h19.842C354.659,425.125,352.409,422.875,352.409,420.125z" id="svg_25" class="" fill="#b6b6b6" fill-opacity="1"/><path style="" d="M404.567,445.125c-2.75,0-5-2.25-5-5v-1.945c0-2.75,2.25-5,5-5h18.723c2.75,0,5,2.25,5,5v1.945  c0,2.75-2.25,5-5,5H404.567z" id="svg_26" class="" fill="#04b8b8" fill-opacity="1"/><path style="" d="M495.29,233.473V219.18c0-2.75-2.25-5-5-5H337.567c-2.75,0-5,2.25-5,5v14.293L495.29,233.473  L495.29,233.473z" id="svg_27" class="" fill="#dadada" fill-opacity="1"/><path style="" d="M357.409,214.18h-19.842c-2.75,0-5,2.25-5,5v14.293h19.842V219.18  C352.409,216.43,354.659,214.18,357.409,214.18z" id="svg_28" class="" fill="#b6b6b6" fill-opacity="1"/><g id="svg_29" class="" fill="#b6b6b6" fill-opacity="1">
	<path style="" d="M460.7114133834839,324.13936311006546 h-68.16899871826172 c-4.142000198364258,0 -7.5,-3.3570001125335693 -7.5,-7.5 s3.3580000400543213,-7.5 7.5,-7.5 h68.16899871826172 c4.142000198364258,0 7.5,3.3570001125335693 7.5,7.5 C468.2114133834839,320.7813614010811 464.8534116744995,324.13936311006546 460.7114133834839,324.13936311006546 z" id="svg_30" fill="#b6b6b6" fill-opacity="1"/>
	<path style="" d="M460.7114133834839,347.2663467526436 h-68.16899871826172 c-4.142000198364258,0 -7.5,-3.3570001125335693 -7.5,-7.5 c0,-4.142000198364258 3.3580000400543213,-7.5 7.5,-7.5 h68.16899871826172 c4.142000198364258,0 7.5,3.3580000400543213 7.5,7.5 C468.2114133834839,343.90935212373734 464.8534116744995,347.2663467526436 460.7114133834839,347.2663467526436 z" id="svg_31" fill="#b6b6b6" fill-opacity="1"/>
	<path style="" d="M460.7114133834839,370.3913467526436 h-68.16899871826172 c-4.142000198364258,0 -7.5,-3.3570001125335693 -7.5,-7.5 c0,-4.142000198364258 3.3580000400543213,-7.5 7.5,-7.5 h68.16899871826172 c4.142000198364258,0 7.5,3.3580000400543213 7.5,7.5 C468.2114133834839,367.03435212373734 464.8534116744995,370.3913467526436 460.7114133834839,370.3913467526436 z" id="svg_32" fill="#b6b6b6" fill-opacity="1"/>
</g><path style="" d="M479.756,292.257c0,2.75-2.25,5-5,5H353.101c-2.75,0-5-2.25-5-5v-41.244c0-2.75,2.25-5,5-5h121.655  c2.75,0,5,2.25,5,5V292.257z" id="svg_33" class="" transform="translate(10.3175, -0.793651)" fill="#dadada" fill-opacity="1"/><path style="" d="M379.0541048049927,290.6696869134903 v-41.24399948120117 c0,-2.75 2.25,-5 5,-5 h-19.841999053955078 c-2.75,0 -5,2.25 -5,5 v41.24399948120117 c0,2.75 2.25,5 5,5 h19.841999053955078 C381.3041048049927,295.6696869134903 379.0541048049927,293.4196869134903 379.0541048049927,290.6696869134903 z" id="svg_34" class="" fill="#b6b6b6" fill-opacity="1"/><path style="" d="M489.53462905328706,410.2096252441406 c0,2.75 -2.586024731397629,5 -5.746721625328064,5 H385.338540779132 c-3.160696893930435,0 -5.746721625328064,-2.25 -5.746721625328064,-5 v-16.90999984741211 c0,-2.75 2.586024731397629,-5 5.746721625328064,-5 h98.4493841864296 c3.160696893930435,0 5.746721625328064,2.25 5.746721625328064,5 L489.53462905328706,410.2096252441406 L489.53462905328706,410.2096252441406 z" id="svg_35" class="" fill="#dadada" fill-opacity="1"/><path style="" d="M382.7673828601837,409.4159851074219 v-16.90999984741211 c0,-2.75 2.25,-5 5,-5 H367.92540287971497 c-2.75,0 -5,2.25 -5,5 v16.90999984741211 c0,2.75 2.25,5 5,5 h19.841999053955078 C385.0173828601837,414.4159851074219 382.7673828601837,412.1659851074219 382.7673828601837,409.4159851074219 z" id="svg_36" class="" fill="#b6b6b6" fill-opacity="1"/><g id="svg_37">
</g><g id="svg_38">
</g><g id="svg_39">
</g><g id="svg_40">
</g><g id="svg_41">
</g><g id="svg_42">
</g><g id="svg_43">
</g><g id="svg_44">
</g><g id="svg_45">
</g><g id="svg_46">
</g><g id="svg_47">
</g><g id="svg_48">
</g><g id="svg_49">
</g><g id="svg_50">
</g><g id="svg_51">
</g></g></svg>